<?xml version="1.0" encoding="UTF-8"?>
<svg id="Layer_3" data-name="Layer 3" xmlns="http://www.w3.org/2000/svg" xmlns:xlink="http://www.w3.org/1999/xlink" viewBox="0 0 334.81 349.77">
  <defs>
    <linearGradient id="linear-gradient" x1="219.24" y1="61.43" x2="91.13" y2="219.33" gradientUnits="userSpaceOnUse">
      <stop offset="0" stop-color="#00c4ac"/>
      <stop offset=".17" stop-color="#00bbad"/>
      <stop offset=".43" stop-color="#00a5b0"/>
      <stop offset=".74" stop-color="#0081b5"/>
      <stop offset="1" stop-color="#0060bb"/>
    </linearGradient>
    <linearGradient id="linear-gradient-2" x1="174.17" y1="113.24" x2="155.03" y2="135.03" gradientTransform="translate(3.43 -.67) rotate(.4)" gradientUnits="userSpaceOnUse">
      <stop offset="0" stop-color="#00c4ac"/>
      <stop offset=".26" stop-color="#00c0ac"/>
      <stop offset=".5" stop-color="#00b4af"/>
      <stop offset=".74" stop-color="#00a1b4"/>
      <stop offset=".97" stop-color="#0086ba"/>
      <stop offset="1" stop-color="#0084bb"/>
    </linearGradient>
    <linearGradient id="linear-gradient-3" x1="86.02" y1="127.45" x2="177.97" y2="208.28" gradientTransform="translate(15.49 1.42) rotate(2.17)" gradientUnits="userSpaceOnUse">
      <stop offset="0" stop-color="#009dc6"/>
      <stop offset=".4" stop-color="#028fc6"/>
      <stop offset="1" stop-color="#0875c9"/>
    </linearGradient>
    <linearGradient id="linear-gradient-4" x1="69.62" y1="252.68" x2="90.98" y2="252.68" gradientTransform="matrix(1,0,0,1,0,0)" xlink:href="#linear-gradient-2"/>
    <linearGradient id="linear-gradient-5" x1="173.09" y1="252.7" x2="192.97" y2="252.7" gradientTransform="matrix(1,0,0,1,0,0)" xlink:href="#linear-gradient-2"/>
  </defs>
  <g>
    <path d="M175.46,170.81c14.56,10.83,18.86,30.75,18.86,30.75l29.91-42.11c13.11-19.5,15.18-45.16,3.13-67.25-17.69-32.42-59.1-44.87-92.5-27.8-21.9,11.19-34.52,34.47-35.84,57.12-.1,1.73,1.16-3.12,6.77-.76,7.2,3.89,11.73,18.87,11.73,18.87l4.72,6.5s1.85-5.74,7.84-6.82,12.05,4.78,12.05,4.78c0,0-13.19-18.1-2.61-35.95,12.75-20.08,32.58-15.81,38.24-13.7,15.74,5.86,21.68,21.74,19.31,35.76-.96,5.27-6.31,14.14-11.15,22.5-5.47,9.43-10.45,18.11-10.45,18.11Z" fill="url(#linear-gradient)" stroke-width="0"/>
    <path d="M184.97,124.74c0,1.25-.52,2.37-1.35,3.18-.82.82-1.95,1.31-3.2,1.3l-8.78-.06-.06,8.78c-.02,2.5-2.05,4.51-4.56,4.49-1.25,0-2.37-.52-3.18-1.35-.82-.82-1.31-1.96-1.3-3.21l.06-8.78-8.78-.06c-2.5-.02-4.51-2.05-4.49-4.55,0-1.26.52-2.38,1.35-3.19.82-.82,1.96-1.31,3.21-1.3l8.78.06.06-8.78c.02-2.49,2.05-4.5,4.55-4.48,1.26,0,2.38.52,3.19,1.35.82.82,1.31,1.95,1.3,3.2l-.06,8.78,8.78.06c2.49.02,4.5,2.05,4.48,4.56Z" fill="url(#linear-gradient-2)" stroke-width="0"/>
    <path d="M175.28,226.83c4.9-6.8,13.09-17.04,14.06-18.35.06-.08.08-.17.07-.27-.15-1.23-1.55-10.38-7.92-20.78-6.73-11.01-27.89-23.96-28.72-24.47-.02-.01-.03-.02-.05-.04-9.5-7.92-21.5-22.48-24.58-14.32-2.74,7.27,13.13,22.05,19.21,27.37.36.31-.04.86-.47.64-6.2-3.17-12.87-7.3-16.02-10.81-7.38-7.71-15.93-18.04-16.93-20.03s-6.9-17.06-10.33-18.74c-1.89-1.12-4.87.68-4.63,2.84,2.82,25.76,18.57,41.46,22.25,45.35,8.11,8.57,37.92,37.67,47.16,51.32,1.75,3.04,5.63,2.02,6.88.29Z" fill="url(#linear-gradient-3)" stroke-width="0"/>
  </g>
  <g>
    <g>
      <path d="M69.62,252.64c0-6.65,4.87-11.42,11.64-11.42,3.58,0,7.2,1.35,9.33,4.78.66,1.06.18,2.45-.99,2.87h0c-.84.3-1.78-.01-2.27-.76-1.55-2.35-3.9-3.09-6.07-3.09-4.24,0-7.21,3.15-7.21,7.62s2.97,7.74,7.21,7.74c2.21,0,4.56-.84,6.11-3.3.47-.74,1.38-1.07,2.21-.8h.03c1.23.4,1.74,1.84,1.05,2.92-2.29,3.58-5.77,4.96-9.4,4.96-6.77,0-11.64-4.87-11.64-11.52Z" fill="url(#linear-gradient-4)" stroke-width="0"/>
      <path d="M99.52,259.88h11.21c1.02,0,1.84.82,1.84,1.84h0c0,1.05-.85,1.9-1.9,1.9h-15.54v-19.71c0-1.18.96-2.14,2.14-2.14h0c1.25,0,2.26,1.01,2.26,2.26v15.84Z" fill="#1b426e" stroke-width="0"/>
      <path d="M117.6,263.62h0c-1.2,0-2.17-.97-2.17-2.17v-17.51c0-1.2.97-2.17,2.17-2.17h0c1.2,0,2.17.97,2.17,2.17v17.51c0,1.2-.97,2.17-2.17,2.17Z" fill="#1b426e" stroke-width="0"/>
      <path d="M143.31,254.17v-10.5c0-1.05.85-1.89,1.89-1.89h.21c1.15,0,2.08.93,2.08,2.08v17.6c0,1.2-.97,2.17-2.17,2.17h0c-1.32,0-2.57-.58-3.41-1.59l-10.02-11.87-1.61-1.98-.04,2.48v10.89c0,1.14-.93,2.07-2.07,2.07h-.01c-1.2,0-2.17-.97-2.17-2.17v-17.24c0-1.35,1.09-2.44,2.44-2.44h.06c.87,0,1.7.38,2.27,1.04l10.43,12.1,2.16,2.71-.04-3.46Z" fill="#1b426e" stroke-width="0"/>
      <path d="M156.79,250.92h10.97c.99,0,1.79.8,1.79,1.79h0c0,.99-.8,1.79-1.79,1.79h-10.97v5.4h11.44c1.03,0,1.86.83,1.86,1.86h0c0,1.03-.83,1.86-1.86,1.86h-15.62v-21.85h15.68c.99,0,1.8.81,1.8,1.8v.11c0,.99-.81,1.8-1.8,1.8h-11.5v5.43Z" fill="#1b426e" stroke-width="0"/>
      <path d="M180.44,252.67l-6.37-7.64c-1.08-1.29-.16-3.25,1.52-3.25h0c.6,0,1.17.27,1.55.74l5.83,7.28,5.85-7.27c.38-.48.97-.75,1.58-.75h0c1.7.01,2.62,2,1.53,3.3l-6.34,7.58,6.89,7.77c1.09,1.23.22,3.18-1.43,3.18h0c-.55,0-1.08-.24-1.44-.65l-6.61-7.56-6.62,7.57c-.36.41-.87.64-1.41.64h0c-1.61,0-2.47-1.9-1.41-3.11l6.88-7.84Z" fill="url(#linear-gradient-5)" stroke-width="0"/>
      <path d="M213.38,258.38h-11.21l-2.11,4.11c-.36.69-1.07,1.13-1.85,1.13h0c-1.55,0-2.55-1.63-1.85-3.02l8.76-17.28c.52-1.03,1.58-1.68,2.74-1.68h0c1.16,0,2.22.65,2.74,1.69l8.67,17.19c.72,1.42-.32,3.1-1.91,3.1h0c-.8,0-1.54-.45-1.9-1.16l-2.09-4.08ZM207.79,246.88l-1.53,3.23-2.28,4.65h7.58l-2.18-4.71-1.6-3.17Z" fill="#1b426e" stroke-width="0"/>
    </g>
    <g>
      <path d="M225.12,263.63h0c-1.19,0-2.16-.97-2.16-2.16v-19.72h11.75c4.18,0,7.73,3.32,7.72,7.49-.01,5.23-3.98,7.6-8.75,7.6h-6.41v4.63c0,1.19-.97,2.16-2.16,2.16ZM233.75,245.5h-6.47v7.72h6.44c2.59-.03,4.47-1.03,4.47-4s-1.97-3.72-4.44-3.72Z" fill="#1b426e" stroke-width="0"/>
      <path d="M247.37,263.63h0c-1.19,0-2.16-.97-2.16-2.16v-19.72h11.75c4.18,0,7.73,3.32,7.72,7.49-.01,5.23-3.98,7.6-8.75,7.6h-6.41v4.63c0,1.19-.97,2.16-2.16,2.16ZM256,245.5h-6.47v7.72h6.44c2.59-.03,4.47-1.03,4.47-4s-1.97-3.72-4.44-3.72Z" fill="#1b426e" stroke-width="0"/>
    </g>
  </g>
  <g>
    <path d="M261.59,271.25c.18,0,.37.04.55.12.64.3.92,1.07.62,1.71l-5.9,12.56,5.96,12.2c.31.64.05,1.41-.59,1.72-.64.31-1.41.05-1.72-.59l-6.23-12.75c-.17-.35-.17-.76,0-1.11l6.17-13.12c.22-.47.68-.74,1.17-.74Z" fill="#0875c9" stroke-width="0"/>
    <path d="M256.77,299.64h-91.13c-8,0-14.48-6.47-14.5-14.47h0c-.02-8.02,6.48-14.53,14.5-14.53h91.13s-7,15.14-7,15.14l7,13.86ZM176.77,290.89v-.78c0-.57-.46-1.03-1.03-1.03h0c-.57,0-1.03.46-1.03,1.03v.98c0,.5-.16.91-.47,1.22-.31.31-.72.46-1.22.46s-.91-.15-1.22-.46c-.31-.31-.47-.72-.47-1.22v-12.31c0-.5.16-.91.47-1.22.31-.31.72-.47,1.22-.47s.9.15,1.22.47c.31.31.47.72.47,1.22v.98c0,.57.46,1.03,1.03,1.03h0c.57,0,1.03-.46,1.03-1.03v-.78c0-1.12-.35-2.03-1.04-2.72-.69-.69-1.6-1.03-2.72-1.03s-2.03.35-2.72,1.03c-.69.69-1.04,1.6-1.04,2.72v11.9c0,1.12.34,2.03,1.04,2.72.69.69,1.59,1.03,2.72,1.03s2.03-.34,2.72-1.03,1.04-1.6,1.04-2.72ZM187.38,290.89v-11.9c0-1.12-.35-2.03-1.04-2.72-.69-.69-1.6-1.03-2.72-1.03s-2.03.35-2.72,1.03c-.69.69-1.04,1.6-1.04,2.72v11.9c0,1.12.34,2.03,1.04,2.72.69.69,1.59,1.03,2.72,1.03s2.03-.34,2.72-1.03,1.04-1.6,1.04-2.72ZM181.94,291.09v-12.31c0-.5.16-.91.47-1.22.31-.31.72-.47,1.22-.47s.9.15,1.22.47c.31.31.47.72.47,1.22v12.31c0,.5-.16.91-.47,1.22-.31.31-.72.46-1.22.46s-.91-.15-1.22-.46c-.31-.31-.47-.72-.47-1.22ZM192.29,294.25c.57,0,1.03-.46,1.03-1.03v-10.95l3.84,10.86c.24.67.88,1.13,1.59,1.13h.51v-17.59c0-.57-.46-1.03-1.03-1.03h0c-.57,0-1.03.46-1.03,1.03v11.1l-4-11.21c-.2-.55-.72-.92-1.31-.92h-.64v17.59c0,.57.46,1.03,1.03,1.03h0ZM209.47,294.25c.51,0,.93-.42.93-.93h0c0-.51-.42-.93-.93-.93h-3.98v-6.52h2.95c.51,0,.93-.42.93-.93h0c0-.51-.42-.93-.93-.93h-2.95v-6.52h3.98c.51,0,.93-.42.93-.93h0c0-.51-.42-.93-.93-.93h-6.05v18.63h6.05ZM220.88,290.89v-.78c0-.57-.46-1.03-1.03-1.03h0c-.57,0-1.03.46-1.03,1.03v.98c0,.5-.16.91-.47,1.22-.31.31-.72.46-1.22.46s-.91-.15-1.22-.46c-.31-.31-.47-.72-.47-1.22v-12.31c0-.5.16-.91.47-1.22.31-.31.72-.47,1.22-.47s.9.15,1.22.47c.31.31.47.72.47,1.22v.98c0,.57.46,1.03,1.03,1.03h0c.57,0,1.03-.46,1.03-1.03v-.78c0-1.12-.35-2.03-1.04-2.72-.69-.69-1.6-1.03-2.72-1.03s-2.03.35-2.72,1.03c-.69.69-1.04,1.6-1.04,2.72v11.9c0,1.12.34,2.03,1.04,2.72.69.69,1.59,1.03,2.72,1.03s2.03-.34,2.72-1.03,1.04-1.6,1.04-2.72ZM227.09,294.25h0c.57,0,1.03-.46,1.03-1.03v-15.73h2.56c.51,0,.93-.42.93-.93h0c0-.51-.42-.93-.93-.93h-7.19c-.51,0-.93.42-.93.93h0c0,.51.42.93.93.93h2.56v15.73c0,.57.46,1.03,1.03,1.03ZM233.44,294.25h0c.52,0,.96-.39,1.03-.91l.45-3.52h3.41l.46,3.62c.06.46.45.8.91.8h0c.55,0,.98-.49.91-1.04l-2.03-15.76c-.13-1.05-1.03-1.83-2.08-1.83h0c-1.06,0-1.95.78-2.08,1.83l-2,15.63c-.08.62.4,1.17,1.03,1.17ZM236.48,277.49h.27s1.34,10.48,1.34,10.48h-2.93l1.33-10.48Z" fill="#0875c9" stroke-width="0"/>
  </g>
</svg>