<?xml version="1.0" encoding="UTF-8"?>
<svg id="Layer_3" data-name="Layer 3" xmlns="http://www.w3.org/2000/svg" viewBox="0 0 142.46 69.46">
  <path d="M17.94,49.57c-.18,0-.37-.04-.55-.12-.64-.3-.92-1.07-.62-1.71l5.9-12.56-5.96-12.2c-.31-.64-.05-1.41.59-1.72.64-.31,1.41-.05,1.72.59l6.23,12.75c.17.35.17.76,0,1.11l-6.17,13.12c-.22.47-.68.74-1.17.74Z" fill="#00c4ac" stroke-width="0"/>
  <path d="M115.74,49.53H22.64s6.91-14.7,6.91-14.7l-6.98-14.3h93.16c8.01,0,14.5,6.49,14.5,14.5h0c0,8.01-6.49,14.5-14.5,14.5ZM48.23,40.77v-.78c0-.57-.46-1.03-1.03-1.03h0c-.57,0-1.03.46-1.03,1.03v.98c0,.5-.16.91-.47,1.22-.31.31-.72.46-1.22.46s-.91-.15-1.22-.46c-.31-.31-.47-.72-.47-1.22v-12.31c0-.5.16-.91.47-1.22.31-.31.72-.47,1.22-.47s.9.15,1.22.47c.31.31.47.72.47,1.22v.98c0,.57.46,1.03,1.03,1.03h0c.57,0,1.03-.46,1.03-1.03v-.78c0-1.12-.35-2.03-1.04-2.72-.69-.69-1.6-1.03-2.72-1.03s-2.03.35-2.72,1.03c-.69.69-1.04,1.6-1.04,2.72v11.9c0,1.12.34,2.03,1.04,2.72.69.69,1.59,1.03,2.72,1.03s2.03-.34,2.72-1.03,1.04-1.6,1.04-2.72ZM58.84,40.77v-11.9c0-1.12-.35-2.03-1.04-2.72-.69-.69-1.6-1.03-2.72-1.03s-2.03.35-2.72,1.03c-.69.69-1.04,1.6-1.04,2.72v11.9c0,1.12.34,2.03,1.04,2.72.69.69,1.59,1.03,2.72,1.03s2.03-.34,2.72-1.03,1.04-1.6,1.04-2.72ZM53.41,40.98v-12.31c0-.5.16-.91.47-1.22.31-.31.72-.47,1.22-.47s.9.15,1.22.47c.31.31.47.72.47,1.22v12.31c0,.5-.16.91-.47,1.22-.31.31-.72.46-1.22.46s-.91-.15-1.22-.46c-.31-.31-.47-.72-.47-1.22ZM63.76,44.14c.57,0,1.03-.46,1.03-1.03v-10.95l3.84,10.86c.24.67.88,1.13,1.59,1.13h.51v-17.59c0-.57-.46-1.03-1.03-1.03h0c-.57,0-1.03.46-1.03,1.03v11.1l-4-11.21c-.2-.55-.72-.92-1.31-.92h-.64v17.59c0,.57.46,1.03,1.03,1.03h0ZM80.93,44.14c.51,0,.93-.42.93-.93h0c0-.51-.42-.93-.93-.93h-3.98v-6.52h2.95c.51,0,.93-.42.93-.93h0c0-.51-.42-.93-.93-.93h-2.95v-6.52h3.98c.51,0,.93-.42.93-.93h0c0-.51-.42-.93-.93-.93h-6.05v18.63h6.05ZM92.34,40.77v-.78c0-.57-.46-1.03-1.03-1.03h0c-.57,0-1.03.46-1.03,1.03v.98c0,.5-.16.91-.47,1.22-.31.31-.72.46-1.22.46s-.91-.15-1.22-.46c-.31-.31-.47-.72-.47-1.22v-12.31c0-.5.16-.91.47-1.22.31-.31.72-.47,1.22-.47s.9.15,1.22.47c.31.31.47.72.47,1.22v.98c0,.57.46,1.03,1.03,1.03h0c.57,0,1.03-.46,1.03-1.03v-.78c0-1.12-.35-2.03-1.04-2.72-.69-.69-1.6-1.03-2.72-1.03s-2.03.35-2.72,1.03c-.69.69-1.04,1.6-1.04,2.72v11.9c0,1.12.34,2.03,1.04,2.72.69.69,1.59,1.03,2.72,1.03s2.03-.34,2.72-1.03,1.04-1.6,1.04-2.72ZM98.55,44.14h0c.57,0,1.03-.46,1.03-1.03v-15.73h2.56c.51,0,.93-.42.93-.93h0c0-.51-.42-.93-.93-.93h-7.19c-.51,0-.93.42-.93.93h0c0,.51.42.93.93.93h2.56v15.73c0,.57.46,1.03,1.03,1.03ZM104.9,44.14h0c.52,0,.96-.39,1.03-.91l.45-3.52h3.41l.46,3.62c.06.46.45.8.91.8h0c.55,0,.98-.49.91-1.04l-2.03-15.76c-.13-1.05-1.03-1.83-2.08-1.83h0c-1.06,0-1.95.78-2.08,1.83l-2,15.63c-.08.62.4,1.17,1.03,1.17ZM107.94,27.37h.27s1.34,10.48,1.34,10.48h-2.93l1.33-10.48Z" fill="#00c4ac" stroke-width="0"/>
</svg>