<?xml version="1.0" encoding="UTF-8"?>
<svg id="Layer_3" data-name="Layer 3" xmlns="http://www.w3.org/2000/svg" xmlns:xlink="http://www.w3.org/1999/xlink" viewBox="0 0 334.81 114.01">
  <defs>
    <linearGradient id="linear-gradient" x1="75.68" y1="57.5" x2="101.16" y2="57.5" gradientUnits="userSpaceOnUse">
      <stop offset="0" stop-color="#00c4ac"/>
      <stop offset=".26" stop-color="#00c0ac"/>
      <stop offset=".5" stop-color="#00b4af"/>
      <stop offset=".74" stop-color="#00a1b4"/>
      <stop offset=".97" stop-color="#0086ba"/>
      <stop offset="1" stop-color="#0084bb"/>
    </linearGradient>
    <linearGradient id="linear-gradient-2" x1="199.14" y1="57.52" x2="222.85" y2="57.52" xlink:href="#linear-gradient"/>
  </defs>
  <path d="M75.68,57.45c0-7.93,5.81-13.63,13.89-13.63,4.27,0,8.59,1.61,11.14,5.71.78,1.26.21,2.92-1.19,3.42h0c-1,.36-2.12-.01-2.71-.9-1.85-2.81-4.66-3.68-7.24-3.68-5.06,0-8.6,3.76-8.6,9.09s3.54,9.24,8.6,9.24c2.64,0,5.44-1,7.29-3.94.56-.88,1.65-1.27,2.64-.96h.04c1.46.47,2.08,2.2,1.25,3.49-2.73,4.27-6.88,5.91-11.22,5.91-8.08,0-13.89-5.81-13.89-13.74Z" fill="url(#linear-gradient)" stroke-width="0"/>
  <path d="M111.36,66.09h13.37c1.21,0,2.2.98,2.2,2.2h0c0,1.25-1.02,2.27-2.27,2.27h-18.55v-23.52c0-1.41,1.14-2.55,2.55-2.55h0c1.49,0,2.7,1.21,2.7,2.7v18.9Z" fill="#1b426e" stroke-width="0"/>
  <path d="M132.92,70.56h0c-1.43,0-2.59-1.16-2.59-2.59v-20.89c0-1.43,1.16-2.59,2.59-2.59h0c1.43,0,2.59,1.16,2.59,2.59v20.89c0,1.43-1.16,2.59-2.59,2.59Z" fill="#1b426e" stroke-width="0"/>
  <path d="M163.6,59.27v-12.53c0-1.25,1.01-2.26,2.26-2.26h.25c1.37,0,2.49,1.11,2.49,2.49v21c0,1.43-1.16,2.59-2.59,2.59h0c-1.57,0-3.06-.69-4.07-1.89l-11.96-14.16-1.92-2.36-.05,2.96v12.99c0,1.36-1.1,2.47-2.47,2.47h-.01c-1.43,0-2.59-1.16-2.59-2.59v-20.57c0-1.61,1.3-2.91,2.91-2.91h.07c1.04,0,2.03.45,2.71,1.24l12.45,14.44,2.58,3.23-.05-4.12Z" fill="#1b426e" stroke-width="0"/>
  <path d="M179.69,55.4h13.09c1.18,0,2.14.96,2.14,2.14h0c0,1.18-.96,2.14-2.14,2.14h-13.09v6.44h13.65c1.22,0,2.22.99,2.22,2.22h0c0,1.22-.99,2.22-2.22,2.22h-18.64v-26.07h18.71c1.19,0,2.15.96,2.15,2.15v.14c0,1.19-.96,2.15-2.15,2.15h-13.72v6.48Z" fill="#1b426e" stroke-width="0"/>
  <path d="M207.91,57.49l-7.6-9.12c-1.28-1.54-.19-3.88,1.82-3.88h0c.72,0,1.4.33,1.84.89l6.96,8.69,6.98-8.67c.46-.57,1.15-.9,1.88-.9h0c2.03.01,3.13,2.38,1.83,3.94l-7.57,9.05,8.22,9.28c1.3,1.47.26,3.8-1.71,3.8h0c-.66,0-1.28-.28-1.72-.78l-7.88-9.01-7.9,9.03c-.43.49-1.04.76-1.69.76h0c-1.92,0-2.95-2.27-1.68-3.72l8.21-9.36Z" fill="url(#linear-gradient-2)" stroke-width="0"/>
  <path d="M247.22,64.3h-13.37l-2.51,4.91c-.42.83-1.28,1.35-2.21,1.35h0c-1.85,0-3.05-1.95-2.21-3.6l10.45-20.61c.62-1.23,1.89-2.01,3.27-2.01h0c1.38,0,2.65.78,3.27,2.01l10.34,20.51c.85,1.7-.38,3.7-2.28,3.7h0c-.96,0-1.83-.54-2.27-1.39l-2.49-4.87ZM240.54,50.57l-1.82,3.86-2.72,5.55h9.05l-2.61-5.62-1.9-3.78Z" fill="#1b426e" stroke-width="0"/>
</svg>