<?xml version="1.0" encoding="UTF-8"?>
<svg id="Layer_3" data-name="Layer 3" xmlns="http://www.w3.org/2000/svg" xmlns:xlink="http://www.w3.org/1999/xlink" viewBox="0 0 334.81 114.01">
  <defs>
    <linearGradient id="linear-gradient" x1="48.54" y1="54.72" x2="74.41" y2="54.72" gradientUnits="userSpaceOnUse">
      <stop offset="0" stop-color="#00c4ac"/>
      <stop offset=".26" stop-color="#00c0ac"/>
      <stop offset=".5" stop-color="#00b4af"/>
      <stop offset=".74" stop-color="#00a1b4"/>
      <stop offset=".97" stop-color="#0086ba"/>
      <stop offset="1" stop-color="#0084bb"/>
    </linearGradient>
    <linearGradient id="linear-gradient-2" x1="173.88" y1="54.74" x2="197.95" y2="54.74" xlink:href="#linear-gradient"/>
  </defs>
  <g>
    <path d="M48.54,54.67c0-8.05,5.9-13.84,14.1-13.84,4.33,0,8.72,1.64,11.3,5.8.79,1.28.21,2.97-1.2,3.47h0c-1.02.36-2.15-.02-2.75-.92-1.88-2.85-4.73-3.74-7.35-3.74-5.14,0-8.73,3.82-8.73,9.23s3.59,9.38,8.73,9.38c2.68,0,5.52-1.02,7.4-4,.56-.9,1.67-1.29,2.68-.97h.04c1.48.48,2.11,2.23,1.27,3.54-2.78,4.33-6.99,6-11.39,6-8.2,0-14.1-5.9-14.1-13.95Z" fill="url(#linear-gradient)" stroke-width="0"/>
    <path d="M84.76,63.44h13.57c1.23,0,2.23,1,2.23,2.23h0c0,1.27-1.03,2.31-2.31,2.31h-18.83v-23.87c0-1.43,1.16-2.59,2.59-2.59h0c1.51,0,2.74,1.23,2.74,2.74v19.19Z" fill="#1b426e" stroke-width="0"/>
    <path d="M106.65,67.98h0c-1.45,0-2.63-1.18-2.63-2.63v-21.21c0-1.45,1.18-2.63,2.63-2.63h0c1.45,0,2.63,1.18,2.63,2.63v21.21c0,1.45-1.18,2.63-2.63,2.63Z" fill="#1b426e" stroke-width="0"/>
    <path d="M137.8,56.52v-12.72c0-1.27,1.03-2.29,2.29-2.29h.25c1.39,0,2.52,1.13,2.52,2.52v21.31c0,1.45-1.18,2.63-2.63,2.63h0c-1.59,0-3.11-.7-4.14-1.92l-12.14-14.37-1.95-2.4-.05,3v13.19c0,1.38-1.12,2.5-2.5,2.5h-.01c-1.45,0-2.63-1.18-2.63-2.63v-20.89c0-1.63,1.32-2.95,2.95-2.95h.07c1.06,0,2.06.46,2.75,1.26l12.64,14.66,2.62,3.28-.05-4.19Z" fill="#1b426e" stroke-width="0"/>
    <path d="M154.13,52.59h13.29c1.2,0,2.17.97,2.17,2.17h0c0,1.2-.97,2.17-2.17,2.17h-13.29v6.54h13.86c1.24,0,2.25,1.01,2.25,2.25h0c0,1.24-1.01,2.25-2.25,2.25h-18.92v-26.47h18.99c1.2,0,2.18.98,2.18,2.18v.14c0,1.2-.98,2.18-2.18,2.18h-13.93v6.58Z" fill="#1b426e" stroke-width="0"/>
    <path d="M182.78,54.7l-7.72-9.26c-1.3-1.56-.19-3.94,1.84-3.94h0c.73,0,1.42.33,1.87.9l7.07,8.82,7.09-8.8c.47-.58,1.17-.91,1.91-.91h0c2.06.01,3.18,2.42,1.86,4l-7.68,9.19,8.34,9.42c1.32,1.5.26,3.85-1.73,3.85h0c-.67,0-1.3-.29-1.74-.79l-8-9.15-8.02,9.17c-.43.49-1.06.78-1.71.78h0c-1.95,0-3-2.3-1.71-3.77l8.34-9.5Z" fill="url(#linear-gradient-2)" stroke-width="0"/>
    <path d="M222.68,61.62h-13.57l-2.55,4.98c-.43.84-1.29,1.37-2.24,1.37h0c-1.88,0-3.09-1.98-2.24-3.65l10.61-20.93c.63-1.25,1.92-2.04,3.32-2.04h0c1.4,0,2.69.79,3.32,2.05l10.5,20.82c.87,1.72-.38,3.75-2.31,3.75h0c-.97,0-1.86-.54-2.3-1.41l-2.53-4.94ZM215.91,47.69l-1.85,3.91-2.76,5.63h9.19l-2.65-5.71-1.93-3.84Z" fill="#1b426e" stroke-width="0"/>
  </g>
  <g>
    <path d="M236.9,67.98h0c-1.44,0-2.61-1.17-2.61-2.61v-23.89h14.23c5.06,0,9.37,4.02,9.35,9.08-.01,6.34-4.82,9.21-10.6,9.21h-7.76v5.6c0,1.44-1.17,2.61-2.61,2.61ZM247.35,46.02h-7.84v9.35h7.8c3.14-.04,5.41-1.25,5.41-4.85s-2.39-4.51-5.38-4.51Z" fill="#1b426e" stroke-width="0"/>
    <path d="M263.85,67.98h0c-1.44,0-2.61-1.17-2.61-2.61v-23.89h14.23c5.06,0,9.37,4.02,9.35,9.08-.01,6.34-4.82,9.21-10.6,9.21h-7.76v5.6c0,1.44-1.17,2.61-2.61,2.61ZM274.3,46.02h-7.84v9.35h7.8c3.14-.04,5.41-1.25,5.41-4.85s-2.39-4.51-5.38-4.51Z" fill="#1b426e" stroke-width="0"/>
  </g>
</svg>