<?xml version="1.0" encoding="UTF-8"?>
<svg id="Layer_3" data-name="Layer 3" xmlns="http://www.w3.org/2000/svg" viewBox="0 0 145.71 60.86">
  <path d="M123.39,16.9c.18,0,.37.04.55.12.64.3.92,1.07.62,1.71l-5.9,12.56,5.96,12.2c.31.64.05,1.41-.59,1.72-.64.31-1.41.05-1.72-.59l-6.23-12.75c-.17-.35-.17-.76,0-1.11l6.17-13.12c.22-.47.68-.74,1.17-.74Z" fill="#0875c9" stroke-width="0"/>
  <path d="M118.57,45.3H27.45c-8,0-14.48-6.47-14.5-14.47h0c-.02-8.02,6.48-14.53,14.5-14.53h91.13s-7,15.14-7,15.14l7,13.86ZM38.57,36.55v-.78c0-.57-.46-1.03-1.03-1.03h0c-.57,0-1.03.46-1.03,1.03v.98c0,.5-.16.91-.47,1.22-.31.31-.72.46-1.22.46s-.91-.15-1.22-.46c-.31-.31-.47-.72-.47-1.22v-12.31c0-.5.16-.91.47-1.22.31-.31.72-.47,1.22-.47s.9.15,1.22.47c.31.31.47.72.47,1.22v.98c0,.57.46,1.03,1.03,1.03h0c.57,0,1.03-.46,1.03-1.03v-.78c0-1.12-.35-2.03-1.04-2.72-.69-.69-1.6-1.03-2.72-1.03s-2.03.35-2.72,1.03c-.69.69-1.04,1.6-1.04,2.72v11.9c0,1.12.34,2.03,1.04,2.72.69.69,1.59,1.03,2.72,1.03s2.03-.34,2.72-1.03,1.04-1.6,1.04-2.72ZM49.18,36.55v-11.9c0-1.12-.35-2.03-1.04-2.72-.69-.69-1.6-1.03-2.72-1.03s-2.03.35-2.72,1.03c-.69.69-1.04,1.6-1.04,2.72v11.9c0,1.12.34,2.03,1.04,2.72.69.69,1.59,1.03,2.72,1.03s2.03-.34,2.72-1.03,1.04-1.6,1.04-2.72ZM43.74,36.75v-12.31c0-.5.16-.91.47-1.22.31-.31.72-.47,1.22-.47s.9.15,1.22.47c.31.31.47.72.47,1.22v12.31c0,.5-.16.91-.47,1.22-.31.31-.72.46-1.22.46s-.91-.15-1.22-.46c-.31-.31-.47-.72-.47-1.22ZM54.09,39.91c.57,0,1.03-.46,1.03-1.03v-10.95l3.84,10.86c.24.67.88,1.13,1.59,1.13h.51v-17.59c0-.57-.46-1.03-1.03-1.03h0c-.57,0-1.03.46-1.03,1.03v11.1l-4-11.21c-.2-.55-.72-.92-1.31-.92h-.64v17.59c0,.57.46,1.03,1.03,1.03h0ZM71.27,39.91c.51,0,.93-.42.93-.93h0c0-.51-.42-.93-.93-.93h-3.98v-6.52h2.95c.51,0,.93-.42.93-.93h0c0-.51-.42-.93-.93-.93h-2.95v-6.52h3.98c.51,0,.93-.42.93-.93h0c0-.51-.42-.93-.93-.93h-6.05v18.63h6.05ZM82.68,36.55v-.78c0-.57-.46-1.03-1.03-1.03h0c-.57,0-1.03.46-1.03,1.03v.98c0,.5-.16.91-.47,1.22-.31.31-.72.46-1.22.46s-.91-.15-1.22-.46c-.31-.31-.47-.72-.47-1.22v-12.31c0-.5.16-.91.47-1.22.31-.31.72-.47,1.22-.47s.9.15,1.22.47c.31.31.47.72.47,1.22v.98c0,.57.46,1.03,1.03,1.03h0c.57,0,1.03-.46,1.03-1.03v-.78c0-1.12-.35-2.03-1.04-2.72-.69-.69-1.6-1.03-2.72-1.03s-2.03.35-2.72,1.03c-.69.69-1.04,1.6-1.04,2.72v11.9c0,1.12.34,2.03,1.04,2.72.69.69,1.59,1.03,2.72,1.03s2.03-.34,2.72-1.03,1.04-1.6,1.04-2.72ZM88.89,39.91h0c.57,0,1.03-.46,1.03-1.03v-15.73h2.56c.51,0,.93-.42.93-.93h0c0-.51-.42-.93-.93-.93h-7.19c-.51,0-.93.42-.93.93h0c0,.51.42.93.93.93h2.56v15.73c0,.57.46,1.03,1.03,1.03ZM95.24,39.91h0c.52,0,.96-.39,1.03-.91l.45-3.52h3.41l.46,3.62c.06.46.45.8.91.8h0c.55,0,.98-.49.91-1.04l-2.03-15.76c-.13-1.05-1.03-1.83-2.08-1.83h0c-1.06,0-1.95.78-2.08,1.83l-2,15.63c-.08.62.4,1.17,1.03,1.17ZM98.28,23.15h.27s1.34,10.48,1.34,10.48h-2.93l1.33-10.48Z" fill="#0875c9" stroke-width="0"/>
</svg>